<?xml version="1.0" encoding="UTF-8" standalone="no"?>
<svg
   xmlns:dc="http://purl.org/dc/elements/1.1/"
   xmlns:cc="http://creativecommons.org/ns#"
   xmlns:rdf="http://www.w3.org/1999/02/22-rdf-syntax-ns#"
   xmlns:svg="http://www.w3.org/2000/svg"
   xmlns="http://www.w3.org/2000/svg"
   xmlns:sodipodi="http://sodipodi.sourceforge.net/DTD/sodipodi-0.dtd"
   xmlns:inkscape="http://www.inkscape.org/namespaces/inkscape"
   version="1.0"
   width="740.000000pt"
   height="740.000000pt"
   viewBox="0 0 740.000000 740.000000"
   preserveAspectRatio="xMidYMid meet"
   id="svg8"
   sodipodi:docname="freecad.svg"
   inkscape:version="1.0.2 (e86c870879, 2021-01-15)"
   inkscape:export-filename="/home/awei/Sync/UI/icons/logo/freecad-icon-16.png"
   inkscape:export-xdpi="16"
   inkscape:export-ydpi="16">
  <metadata
     id="metadata14">
    <rdf:RDF>
      <cc:Work
         rdf:about="">
        <dc:format>image/svg+xml</dc:format>
        <dc:type
           rdf:resource="http://purl.org/dc/dcmitype/StillImage" />
        <dc:title></dc:title>
      </cc:Work>
    </rdf:RDF>
  </metadata>
  <defs
     id="defs12" />
  <sodipodi:namedview
     pagecolor="#ffffff"
     bordercolor="#666666"
     borderopacity="1"
     objecttolerance="10"
     gridtolerance="10"
     guidetolerance="10"
     inkscape:pageopacity="0"
     inkscape:pageshadow="2"
     inkscape:window-width="1600"
     inkscape:window-height="849"
     id="namedview10"
     showgrid="false"
     inkscape:snap-text-baseline="true"
     inkscape:zoom="0.34560811"
     inkscape:cx="-565.26671"
     inkscape:cy="712.81815"
     inkscape:window-x="0"
     inkscape:window-y="27"
     inkscape:window-maximized="1"
     inkscape:current-layer="svg8" />
  <g
     id="g20"
     transform="matrix(2.3871187,0,0,2.3871187,-515.32686,-513.03038)"
     inkscape:export-xdpi="86"
     inkscape:export-ydpi="86">
    <path
       d="m 245,233.9 c -7.1,2.3 -13.1,7.4 -16.6,14.1 -1.8,3.4 -1.9,8.9 -2.2,131.2 L 226,507 h 24.5 24.5 v -95.3 l 0.1,-95.2 16.2,16.8 16.2,16.8 16.7,-16.8 16.7,-16.8 -37.8,-39.5 c -28.3,-29.5 -39,-40 -42,-41.3 -4.9,-2.1 -12.5,-3 -16.1,-1.8 z"
       id="path2"
       style="fill:#000000;stroke:none;stroke-width:0.1" />
    <path
       d="m 478.4,236 c -2.3,1.2 -6.6,4.6 -9.5,7.8 -11,11.6 -144.6,151 -152.3,159 -4.5,4.6 -8.2,8.8 -8.4,9.5 -0.1,0.7 7.1,8.5 16.1,17.5 l 16.3,16.3 19.4,-20.3 c 10.7,-11.2 38.6,-40.2 61.9,-64.6 23.3,-24.3 42.5,-44.2 42.7,-44.2 0.2,0 0.4,24 0.4,53.2 v 53.3 l -4.7,-5 c -2.6,-2.8 -9.8,-10.3 -16.2,-16.8 l -11.5,-11.8 -16.5,16.5 -16.4,16.4 3.3,3.9 c 3.7,4.3 42,44.3 60.9,63.5 9.8,10 13.4,13 16.9,14.3 12,4 24.2,-0.7 29.7,-11.5 l 2.5,-4.9 V 370 c 0,-97.9 -0.2,-118.6 -1.4,-121.4 -2,-4.8 -7.5,-10.7 -12.1,-12.7 -5.6,-2.6 -15.8,-2.5 -21.1,0.1 z"
       id="path4"
       style="fill:#ff0000;stroke:none;stroke-width:0.1" />
  </g>
</svg>
